<?xml version="1.0" encoding="UTF-8"?>
<svg version="1.1" viewBox="0 0 2048 2048" width="1280" height="1280" xmlns="http://www.w3.org/2000/svg">
<path transform="translate(1e3 266)" d="m0 0h76l12 2 10 4 11 8 8 9 5 11 2 10 1 15v51l-2 19-4 13-7 13-9 14-16 24-13 20-13 22-8 16-5 13-3 14 46 1 67 4 51 5 47 6 55 9 41 8 52 12 42 11 43 13 49 16 43 16 47 19 41 17 44 18 23 10 14 8 12 11 7 10 4 10 1 6v18l-3 12-7 12-8 9-13 9-13 6-16 4h-25l-17-5-30-13-28-11-36-15-53-20-62-21-44-13-40-11-41-10-51-11-59-10-37-5-34-4-57-4-42-1-1 5-3 3-13 2h-16l-14-2-3-3-1-4h-36l-44 3-46 5-37 5-59 10-64 14-50 13-41 12-35 11-42 14-51 19-94 38-19 7-6 2-7 1h-20l-17-4-16-8-9-7-8-8-7-11-4-12-1-5v-12l4-15 8-14 9-9 11-7 14-7 44-18 28-11 32-13 40-16 40-15 47-16 38-12 52-14 50-12 51-10 48-8 45-6 59-6 27-2 40-2h10l1-44 3-16 6-17 13-25 14-22 32-49 8-16v-12l-6-10-9-8-10-5-8-2h-15l-10 3-6 4-4 5-7 14h-46l-2-4-1-6v-36l4-18 4-6 4-3 13-3 14-2z" fill="#FEFEFE"/>
<path transform="translate(513,927)" d="m0 0h60l17 2 14 4 16 8 10 7 12 11 9 11 9 13 12 21 11 21 5 15 2 21v46l-1 31-2 22-5 23-9 24-8 15-12 17-11 12-10 10-15 11-14 6-17 4-13 1h-35l-20-1-15-3-16-8-8-6-13-13-10-15-8-16-5-15-3-20-1-75v-22l2-30 2-19 5-23 7-23 10-22 10-17 9-11 5-6 12-8zm38 71-9 10-8 7-10 19-8 21-4 15-4 24-1 8v51l4 15 8 16 9 12 12 12 9 5h6l11-6 11-9 11-11 10-13 8-13 8-17 5-17 3-19v-21l-5-15-14-26-9-14-10-13-10-10-11-7-8-4z" fill="#FEFEFE"/>
<path transform="translate(1087,947)" d="m0 0h62l10 4 8 7 6 10 7 19 7 27 13 57 11 49 4 26 3 36 1 19v26l-1 13-3 10-1 1h-52l-7-6-3-6-3-32-2-23-3-20v-5l-19-1-44-7h-34l-6 3-6 14-4 14v13l1 8v49l-4 4-12 2h-38l-7-3-7-10-3-11v-83l4-17 12-36 16-43 10-27 12-25 10-16 12-14 10-9 16-10 14-5zm21 76-11 8-9 10-10 15-9 19-2 8 1 1 56 1 1-1-1-14-6-24-7-20z" fill="#FEFEFE"/>
<path transform="translate(795,933)" d="m0 0h67l22 3 17 5 16 8 10 9 7 11 2 5 1 13v29l-1 13-4 2-11 1h-27l-16-2-5-5-9-11-10-6-13-5-6-1-7 3-11 11-9 13-9 16-10 25-5 18-3 17-1 14v10l3 14 8 19 10 17 9 10 4 3h7l10-7 26-22 13-10 11-4h46l3 7 2 9v35l-3 9-4 6-8 7-11 10-11 9-13 10-14 8-12 4-5 1h-69l-13-4-11-6-12-11-7-8-8-13-11-23-5-15-2-13-1-23v-53l1-21 3-24 5-21 6-18 9-21 8-15 9-13 9-10 10-10 14-7z" fill="#FEFEFE"/>
<path transform="translate(1797,932)" d="m0 0 25 1 8 2 3 5 2 14v33l-2 15-7 21-20 50-15 33-12 23-7 10-8 7-8 4v13l4 53v32l-3 7-11 3-12 1h-16l-17-2-5-3-3-11-3-36-2-31-1-36-11-15-9-16-10-22-18-44-8-17-7-11-2-8v-50l1-9 5-2 14-1h26l11 2 6 4 6 9 5 19 6 26 8 22 12 28 5 11v2l3-3 13-29 15-36 5-17 9-44 2-5 4-1z" fill="#FEFEFE"/>
<path transform="translate(1469,929)" d="m0 0h18l20 1 3 4 3 12 1 92v147h98l9 1 3 7 3 16v19l-1 14-3 7-10 3h-145l-10-3-6-5-3-6-2-9v-293l4-4 7-2z" fill="#FEFEFE"/>
<path transform="translate(249,930)" d="m0 0h48l4 9 2 10 1 236h103l4 2 4 12 2 15-1 21-2 13-3 2-9 2h-143l-9-2-8-6-4-8-1-4-1-196v-97l2-6z" fill="#FEFEFE"/>
<path transform="translate(1254,930)" d="m0 0h48l3 2 4 13 1 240h96l11 1 4 10 2 12v23l-1 14-2 4-10 3h-147l-9-3-7-7-3-7-1-7v-184l-1-50v-52l2-8 6-3z" fill="#FEFEFE"/>
<path transform="translate(1275,1376)" d="m0 0h35l7 3 4 4v9l-4 5 2 5 4 5v7l-5 6-6 2h-36l-1-1zm10 7-1 3v8l1 1h24l3-3v-8l-1-1zm0 19-1 13 1 1h24l4-3v-8l-3-3z" fill="#FEFEFE"/>
<path transform="translate(829,1376)" d="m0 0h35l8 3 3 5v7l-4 6 2 5 3 4 1 6-3 6-4 3-4 1h-36l-1-2zm9 7v11l1 1h23l3-2v-10zm0 19v14h24l4-2 1-2v-6l-4-4z" fill="#FEFEFE"/>
<path transform="translate(1598,1376)" d="m0 0h20l8 3 7 6 4 11v7l-3 8-6 8 4 8-5 4-6-7-2-1h-16l-12-3-8-7-3-7v-13l4-8 8-7zm5 6-8 4-4 5-2 6 1 9 6 7 6 3 7 1 3-1-2-5-4-4h-2v-2l9 3 6 4 4-1 3-4 1-3v-10l-4-6-5-4-6-2z" fill="#FEFEFE"/>
<path transform="translate(898,1376)" d="m0 0h34l9 3 4 4 2 5-1 6-6 7-4 3 9 15 1 3h-10l-6-9-5-8-16-1-1 18h-9l-1-3zm16 6-6 1v13l1 1h19l8-4 1-1-1-7-2-2z" fill="#FEFEFE"/>
<path transform="translate(1106,1376)" d="m0 0h32l10 3 7 8 2 5v14l-4 8-7 6-7 2h-32l-1-1zm10 7v33h23l6-4 3-9v-9l-3-7-4-4z" fill="#FEFEFE"/>
<path transform="translate(718,1376)" d="m0 0h11l12 13 7 8 11 10 1-31h8v46h-8l-20-20-7-8-5-4-2-1v33h-8z" fill="#FEFEFE"/>
<path transform="translate(379,1375)" d="m0 0h12l15 4 2 1-2 5-2 4-4-2-9-4h-11l-9 4-4 5-1 3v9l4 7 8 4h16l6-2 1-4-1-2h-14l-1-1v-8l25 1-1 18-7 4-13 2h-8l-13-3-7-5-5-8v-15l4-8 8-6z" fill="#FEFEFE"/>
<path transform="translate(1032,1376)" d="m0 0h10l6 7 24 24 2 1v-32h8v45l-1 1h-7l-7-6-7-8-16-16v-2l-3-1-2 33h-7z" fill="#FEFEFE"/>
<path transform="translate(1357,1376)" d="m0 0h20l9 4 5 4 4 8 1 8-2 10-7 8-11 4h-19l-8-3-6-5-4-8v-13l4-8 8-7zm5 6-8 4-4 5-2 4v9l4 6 6 5 3 1h14l6-4 4-5 1-3v-10l-3-5-6-5-5-2z" fill="#FEFEFE"/>
<path transform="translate(1731,1376)" d="m0 0h41v7h-31l1 11h21v8h-22v13h32l1 1v6l-2 1-41-1z" fill="#FEFEFE"/>
<path transform="translate(1193,1375)" d="m0 0 14 2 10 4-1 5-3 3-8-5-5-1h-13l-4 2-1 3 3 4 7 2 15 2 8 4 3 5v6l-4 6-3 3-6 2-12 1-15-3-6-2 1-6 2-5 5 5 8 3h15l4-2 1-5-2-2-22-4-8-4-3-3v-10l5-6 6-3z" fill="#FEFEFE"/>
<path transform="translate(337,1375)" d="m0 0 4 1v7h-32v11l21 1 1 1v6h-23v14l33-1 1 7h-42l-1-7v-39z" fill="#FEFEFE"/>
<path transform="translate(1464,1375)" d="m0 0 2 1v19l-1 15-3 5-6 5-6 2-13 1-11-2-6-4-4-5-1-3-1-33h11v31l4 6 5 2h13l6-2 2-6v-31z" fill="#FEFEFE"/>
<path transform="translate(494,1376)" d="m0 0h36l6 3 3 4 1 3v9l-5 6-3 1-21 1h-7v17l-1 2h-8l-1-41zm10 7v12l1 1h17l8-2v-9l-2-2z" fill="#FEFEFE"/>
<path transform="translate(1697,1375)" d="m0 0 11 1-1 10-1 24-3 6-6 4-6 2-14 1-10-2-6-4-4-5-1-2-1-34h11v31l3 5 6 3h13l6-3 2-5v-31z" fill="#FEFEFE"/>
<path transform="translate(667,1376)" d="m0 0h13l8 18 11 25v3h-9l-4-10-2-1h-22l-6 11h-8l3-9 15-34zm5 10-6 12-1 6h17l-3-9-6-9z" fill="#FEFEFE"/>
<path transform="translate(981,1376)" d="m0 0h12l15 32 5 12v2h-9l-4-9v-2h-25l-5 11h-8l1-5 8-18zm4 9-7 17v2h17l-1-5-7-14z" fill="#FEFEFE"/>
<path transform="translate(1483,1375)" d="m0 0h46l1 1v7h-19v39h-10v-39h-18l-1-3z" fill="#FEFEFE"/>
<path transform="translate(552,1375)" d="m0 0h45l1 1v7h-18v39h-10v-39h-19v-7z" fill="#FEFEFE"/>
<path transform="translate(425,1376)" d="m0 0h14l5 10 8 9 10-13 2-6h12l-2 4-13 17-4 6-1 8v11h-9l-1-18-6-9-10-13z" fill="#FEFEFE"/>
<path transform="translate(1549,1376)" d="m0 0h10l1 2-1 44-1 1-9-1z" fill="#FEFEFE"/>
<path transform="translate(617,1376)" d="m0 0h11l-1 46h-9z" fill="#FEFEFE"/>
</svg>
